<?xml version="1.0"?>
<svg width="2458" height="512" xmlns="http://www.w3.org/2000/svg" xmlns:svg="http://www.w3.org/2000/svg" version="1.1">

 <g class="layer">
  <title>Layer 1</title>
  <path d="m247.25,1.68c7.48,0.04 14.98,0.04 22.46,0.02c36.03,0.04 71.55,0.7 106.03,11.4c2.1,0.63 4.22,1.27 6.38,1.92c29.1,9.26 54.95,23.22 77.85,42.35c1.64,1.33 3.26,2.69 4.95,4.06c11.61,10.09 19.61,20.98 26.97,34c1,1.76 2.01,3.51 3.06,5.33c17.53,32.99 20.09,68.09 20.13,104.33c0,2.5 0,5.01 0.02,7.61c0,5.27 0,10.55 0,15.84c0.02,7.97 0.05,15.96 0.09,23.94c0.21,69.59 0.21,69.59 -13.18,100.12c-0.82,1.88 -1.62,3.74 -2.44,5.69c-29.35,66.08 -95.95,102.94 -162.74,132.56c-1.85,0.8 -3.67,1.63 -5.59,2.47c-16.69,7.17 -34.18,12.75 -51.42,18.67c0,-16.75 0,-33.49 0,-50.75c-1.5,0.7 -3.01,1.4 -4.56,2.11c-65.37,8.73 -136.97,3.4 -192.72,-32.04c-44.17,-30.64 -71.78,-81.88 -80.24,-132.05c-2.39,-18.38 -1.78,-37.09 -1.66,-55.57c0,-2.28 0.02,-4.59 0.02,-6.96c0.23,-69.17 8.55,-128.01 62.25,-179.78c26.34,-23.7 60.04,-41.25 96.06,-48.23c2.55,-0.55 5.08,-1.08 7.71,-1.63c26.93,-5.07 53.15,-5.62 80.56,-5.43z" fill="#0276FE" id="svg_2"/>
  <path d="m202.38,76.86c35.45,21.61 62.06,67.04 86.45,100.76c11.55,15.94 23.27,31.73 35.58,47.03c1.4,1.73 2.79,3.45 4.21,5.25c4.53,4.42 7.18,5.11 13.06,6.41c-0.02,-2.74 -0.02,-2.74 -0.04,-5.53c-0.13,-17.29 -0.22,-34.57 -0.29,-51.88c-0.04,-8.87 -0.09,-17.76 -0.16,-26.65c-0.09,-8.58 -0.11,-17.17 -0.13,-25.75c-0.02,-3.29 -0.04,-6.55 -0.09,-9.81c-0.04,-4.59 -0.04,-9.2 -0.04,-13.79c-0.02,-3.9 -0.02,-3.9 -0.04,-7.9c0.8,-7.66 0.8,-7.66 7.49,-24.21c22.81,0 45.61,0 69.11,0c-0.09,33.18 -0.22,66.33 -0.4,99.48c-0.09,15.39 -0.16,30.79 -0.2,46.18c-0.02,14.87 -0.11,29.75 -0.22,44.62c-0.02,5.68 -0.04,11.33 -0.04,16.98c0,7.97 -0.07,15.91 -0.13,23.88c0.02,3.48 0.02,3.48 0.02,7.02c-0.27,19.34 -3.88,39.09 -16.43,53.87c-10.41,9.58 -22.07,14.66 -36.03,13.98c-16.99,-3.62 -27.13,-17.9 -36.29,-32.3c-1.23,-1.84 -2.45,-3.71 -3.72,-5.65c-2.54,-3.85 -5.08,-7.76 -7.6,-11.63c-5.77,-8.92 -11.64,-17.76 -17.52,-26.6c-1.09,-1.66 -2.18,-3.31 -3.32,-5.04c-8.65,-13.01 -17.72,-25.61 -26.95,-38.19c-5.71,-7.9 -11.1,-15.99 -16.45,-24.19c-5.13,-7.87 -10.32,-15.68 -15.54,-23.48c-0.91,-1.37 -1.83,-2.72 -2.76,-4.14c-1.78,-2.67 -3.59,-5.32 -5.42,-7.95c-1.81,-2.58 -3.54,-5.2 -5.22,-7.85c-5.28,-7.73 -9.34,-11 -17.92,-12.98c-2.81,-0.64 -5.64,-1.28 -8.54,-1.96c0,1.68 -0.02,3.36 -0.04,5.11c-0.11,15.96 -0.29,31.92 -0.47,47.89c-0.11,8.21 -0.2,16.41 -0.25,24.62c-0.09,9.46 -0.2,18.92 -0.33,28.4c0,2.88 -0.02,5.77 -0.04,8.77c-0.4,25.49 -1.83,52.64 -18.93,72.03c-16.54,10.97 -33.62,9.91 -52.52,9.91c-2.5,0.02 -4.97,0.07 -7.56,0.09c-16.81,0.02 -32.66,-1.77 -49.16,-5.27c0,-1.56 0,-3.12 0,-4.73c1.43,-0.69 2.85,-1.37 4.32,-2.08c18.59,-9.34 31.75,-17.76 40.26,-38.12c12.19,-42.59 10.12,-88.11 10.03,-132.12c-0.02,-12.27 -0.02,-24.57 0.07,-36.84c0,-4.85 -0.02,-9.67 -0.07,-14.52c0.09,-17.31 1.25,-28.83 10.03,-43.53c1.2,-2.08 2.39,-4.19 3.63,-6.34c19.15,-19.79 42.69,-22.65 66.61,-11.23z" fill="#F8FBFE" id="svg_3" transform="matrix(1, 0, 0, 1, 0, 0)"/>
  <path d="m2042,140c25.76,0 51.51,0 78.05,0c0,28.2 0,56.4 0,85.46c8.59,-4.45 17.17,-8.91 26.02,-13.49c21.07,-3.46 42.56,-4.23 61.97,4.41c19.36,13.36 30.39,26.54 33.25,47.72c0.1,24.83 0,43.81 -17.17,64.81c-25.03,20.02 -44.02,23.43 -76.96,23.25c-13.89,-0.94 -24.77,-5.04 -37.52,-9.76c-10.77,1.12 -10.77,1.12 -20.81,4.5c-10.3,2.2 -10.3,2.2 -20.81,4.5c-1.72,-63.82 -3.43,-127.65 -5.2,-193.41c-6.87,-1.48 -13.74,-2.97 -20.81,-4.5c0,-4.45 0,-8.91 0,-13.49z" fill="#0D7EFF" id="svg_5" transform="matrix(1, 0, 0, 1, 0, 0)"/>
  <path d="m2339.87,221.07c11.85,11.94 18.73,23.35 21.55,43.2c0.86,27.95 -2.28,46.42 -14.93,68.61c-18.7,18.96 -40.08,21.96 -62.89,17.89c-14.3,-7.51 -23.83,-17.67 -33.1,-34.08c-4.83,-22 -6.65,-41.64 -3.31,-64.31c7.88,-18.47 17.84,-31.35 31.25,-42.49c22.08,-5.81 41.77,-4.07 61.43,11.18z" fill="#0E7EFF" id="svg_6" transform="matrix(1, 0, 0, 1, 0, 0)"/>
  <path d="m806.56,122c36.12,0 72.23,0 109.44,0c0,5.31 0,10.61 0,16.08c-5.59,1.55 -11.17,3.11 -16.93,4.72c-18.26,4.07 -18.26,4.07 -23.39,16.72c-0.92,14.47 -1.5,28.78 -1.84,43.25c-0.12,4.29 -0.23,8.52 -0.35,12.92c-0.35,13.67 -0.69,27.34 -1.04,41c-0.29,9.22 -0.52,18.49 -0.75,27.71c-0.63,22.67 -1.21,45.4 -1.79,68.07c-16.36,0.86 -16.36,0.86 -34.56,0c-11.58,-10.67 -19.93,-19.94 -29.15,-32.16c-5.47,-6.81 -10.89,-13.67 -16.36,-20.47c-2.82,-3.64 -5.7,-7.24 -8.64,-10.99c-16.24,-20.15 -33.47,-39.5 -50.63,-58.96c-16.53,-18.92 -16.53,-18.92 -33.47,-38.22c0,45.99 0,91.98 0,139.36c11.4,1.77 22.81,3.54 34.56,5.36c0,5.31 0,10.61 0,16.08c-34.21,0 -68.43,0 -103.68,0c0,-5.31 0,-10.61 0,-16.08c17.11,-2.63 17.11,-2.63 34.56,-5.36c0.86,-24.01 1.5,-48.08 1.9,-72.09c0.17,-8.2 0.4,-16.35 0.69,-24.55c0.46,-11.74 0.63,-23.48 0.81,-35.27c0.17,-3.64 0.35,-7.29 0.52,-11.04c0.4,-11.79 0.4,-11.79 -3.92,-28.57c-16.88,-12.7 -16.88,-12.7 -34.56,-21.44c0,-3.54 0,-7.08 0,-10.72c78.74,-8.09 78.74,-8.09 107.6,9.27c13.54,14.15 24.88,28.78 36.4,44.33c8.41,10.02 16.99,19.94 25.52,29.8c17.22,19.99 34.1,40.04 49.36,61.32c0.69,-18.44 1.09,-36.82 1.44,-55.26c0.17,-5.25 0.4,-10.51 0.58,-15.87c0.06,-5.04 0.17,-10.08 0.23,-15.22c0.12,-4.66 0.23,-9.27 0.35,-14.04c-1.44,-12.97 -1.44,-12.97 -13.19,-21.49c-12.79,-7.45 -12.79,-7.45 -29.72,-12.11c0,-5.31 0,-10.61 0,-16.08z" fill="#0A7CFE" id="svg_7" transform="matrix(1, 0, 0, 1, 0, 0)"/>
  <path d="m1874,218.79c21.28,0 42.57,0 64.5,0c1.42,4.53 2.84,9.06 4.3,13.72c3.53,-3.34 3.53,-3.34 7.14,-6.72c12.13,-8.42 19.31,-8.96 33.71,-9.01c4.04,-0.09 8.08,-0.18 12.21,-0.27c11.44,2.29 11.44,2.29 21.33,8.32c11.87,19.85 10.23,40.71 10.53,63.71c0.13,4.71 0.26,9.42 0.39,14.32c0.3,11.62 0.52,23.23 0.69,34.85c5.68,3.02 11.35,6.04 17.2,9.15c0,3.02 0,6.04 0,9.15c-25.54,0 -51.08,0 -77.4,0c0,-3.02 0,-6.04 0,-9.15c2.84,-1.51 5.68,-3.02 8.6,-4.57c0,-31.7 0,-63.39 0,-96.05c-9.93,0 -19.87,0 -30.1,0c-6.79,7.23 -5.25,15 -5.68,25.02c-0.17,4.12 -0.34,8.23 -0.52,12.49c-0.26,6.49 -0.26,6.49 -0.52,13.08c-0.21,4.35 -0.39,8.69 -0.56,13.17c-0.47,10.75 -0.9,21.54 -1.33,32.29c4.26,1.51 8.51,3.02 12.9,4.57c0,3.02 0,6.04 0,9.15c-25.54,0 -51.08,0 -77.4,0c0,-3.02 0,-6.04 0,-9.15c5.68,-3.02 11.35,-6.04 17.2,-9.15c0,-31.7 0,-63.39 0,-96.05c-5.68,-3.02 -11.35,-6.04 -17.2,-9.15c0,-4.53 0,-9.06 0,-13.72z" fill="#097BFF" id="svg_8"/>
  <path d="m1615.28,216.71c13.87,7.6 13.87,7.6 24.97,16.91c1.78,10.44 1.78,10.44 2.28,23.3c0.22,4.61 0.44,9.23 0.67,13.93c0.17,4.8 0.33,9.65 0.55,14.58c0.17,4.85 0.39,9.69 0.61,14.68c0.55,12.02 1,24 1.44,36.02c7.33,1.49 14.65,3.08 22.2,4.66c0,4.57 0,9.23 0,13.98c-19.03,7.97 -40.18,6.52 -61.04,4.66c-14.21,-6.99 -14.21,-6.99 -22.2,-13.98c-3.66,2.28 -7.33,4.57 -11.1,6.99c-21.14,8.85 -37.85,11.14 -61.04,6.99c-19.09,-11.37 -26.42,-17.99 -31.24,-37.28c3.55,-14.21 7.71,-22.13 20.7,-31.87c24.7,-12.72 58.99,-24.04 88.24,-24.04c-3.66,-12.3 -7.33,-24.65 -11.1,-37.28c-16.48,-2.33 -16.48,-2.33 -33.3,-4.66c0,12.25 0,24.6 0,37.28c-15.32,6.43 -27.47,5.54 -44.4,4.66c-3.66,-3.12 -7.33,-6.2 -11.1,-9.32c0.33,-11.09 0.33,-11.09 5.55,-23.3c34.02,-27.12 76.08,-31.17 119.31,-16.91z" fill="#0579FF" id="svg_9"/>
  <path d="m1109,215c21.29,0 42.57,0 64.5,0c1.42,39.12 2.84,78.24 4.3,118.54c11.35,-3.01 22.7,-6.02 34.4,-9.12c1.42,-30.09 2.84,-60.18 4.3,-91.18c-10.66,-2.28 -10.66,-2.28 -21.5,-4.56c0,-4.51 0,-9.03 0,-13.68c21.29,0 42.57,0 64.5,0c2.11,56.44 2.11,56.44 4.3,113.98c5.68,3.01 11.35,6.02 17.2,9.12c0,4.51 0,9.03 0,13.68c-21.29,0 -42.57,0 -64.5,0c0,-4.51 0,-9.03 0,-13.68c-3.44,3.01 -6.92,6.02 -10.49,9.12c-17.07,12.04 -34.06,13.22 -54.01,9.12c-10.75,-8.57 -15.57,-14.77 -21.5,-27.35c-0.65,-6.93 -1.08,-13.86 -1.38,-20.84c-0.26,-6.11 -0.26,-6.11 -0.52,-12.4c-0.17,-4.24 -0.34,-8.53 -0.52,-12.9c-0.22,-4.33 -0.39,-8.62 -0.56,-13.08c-0.47,-10.67 -0.9,-21.29 -1.33,-31.96c-5.68,-3.01 -11.35,-6.02 -17.2,-9.12c0,-4.51 0,-9.03 0,-13.68z" fill="#0C7DFF" id="svg_10"/>
  <path d="m1035.11,210.74c19.14,8.39 32.76,15.85 42.89,32.44c0,10.7 0,21.41 0,32.44c-35.38,0 -70.77,0 -107.22,0c5.63,31.51 5.63,31.51 26.81,50.98c21.98,3.57 42.14,3.24 61.33,-6.95c2.73,-2.32 5.52,-4.59 8.36,-6.95c3.54,0 7.08,0 10.72,0c-2.04,11.21 -3.86,17.24 -13.19,25.4c-30.77,17.61 -57.58,21.32 -94.04,16.31c-22.14,-6.02 -37.69,-16.64 -50.61,-33.32c-11.15,-19.51 -12.65,-38.05 -8.36,-59.36c7.24,-17.84 19.03,-30.35 34.53,-43.75c28.79,-10.89 57.79,-10.94 88.78,-7.23z" fill="#0B7DFF" id="svg_11"/>
  <path d="m1699,139c53.79,0 107.58,0 163,0c0,5.07 0,10.13 0,15.35c-13.45,3.38 -26.89,6.75 -40.75,10.23c0,57.4 0,114.81 0,173.95c11.21,1.69 22.41,3.38 33.96,5.12c0,5.07 0,10.13 0,15.35c-51.55,0 -103.1,0 -156.21,0c0,-3.38 0,-6.75 0,-10.23c11.21,-3.38 22.41,-6.75 33.96,-10.23c0,-57.4 0,-114.81 0,-173.95c-16.84,-5.07 -16.84,-5.07 -33.96,-10.23c0,-5.07 0,-10.13 0,-15.35z" fill="#0C7DFF" id="svg_12"/>
  <path d="m2359,214c16.48,0 32.96,0 49.94,0c0,4.65 0,9.31 0,14.1c-2.6,0 -5.2,0 -7.89,0c3.47,10.86 6.94,21.71 10.51,32.9c9.02,-14.95 9.02,-14.95 15.77,-32.9c-2.6,0 -5.2,0 -7.89,0c0,-4.65 0,-9.31 0,-14.1c10.41,0 20.82,0 31.54,0c0,4.65 0,9.31 0,14.1c-2.29,1.74 -4.55,3.48 -6.89,5.31c-10.38,10.25 -16.61,21.57 -24.66,36.99c3.68,18.99 8.7,32.62 15.77,48.18c1.84,4.09 3.68,8.18 5.6,12.41c4.47,10.25 4.47,10.25 10.17,14.62c0,3.1 0,6.2 0,9.4c-15.61,0 -31.23,0 -47.31,0c0,-3.1 0,-6.2 0,-9.4c2.6,0 5.2,0 7.89,0c-4.34,-12.41 -8.67,-24.82 -13.14,-37.6c-4.49,7.61 -8.86,15.46 -13.14,23.5c0,3.1 0,6.2 0,9.4c1.73,1.55 3.47,3.1 5.26,4.7c0,3.1 0,6.2 0,9.4c-10.41,0 -20.82,0 -31.54,0c0,-4.65 0,-9.31 0,-14.1c4.36,-4.75 8.75,-9.45 13.14,-14.1c6.39,-10.53 12.41,-21.62 18.4,-32.9c-4.31,-16.31 -9.65,-29.89 -15.72,-44.23c-2.68,-7.47 -2.68,-7.47 -2.68,-16.87c-4.34,-1.55 -8.67,-3.1 -13.14,-4.7c0,-4.65 0,-9.31 0,-14.1z" fill="#0C7DFF" id="svg_13"/>
  <path d="m1314,217.92c25.4,0 50.81,0 76.98,0c1.69,4.52 3.39,9.05 5.13,13.71c2.57,-2.28 5.08,-4.52 7.7,-6.85c18.94,-10.1 31.97,-8.41 53.89,-6.85c10.26,9.14 10.26,9.14 11.55,25.13c-1.28,15.99 -1.28,15.99 -11.55,25.13c-15.4,1.14 -15.4,1.14 -30.79,0c-3.39,-3.02 -6.77,-6.03 -10.26,-9.14c0,-6.03 0,-12.06 0,-18.28c-10.16,4.52 -10.16,4.52 -20.53,9.14c0,28.65 0,57.3 0,86.82c6.77,3.02 13.55,6.03 20.53,9.14c0,3.02 0,6.03 0,9.14c-33.87,0 -67.75,0 -102.64,0c0,-3.02 0,-6.03 0,-9.14c6.77,-3.02 13.55,-6.03 20.53,-9.14c0,-31.67 0,-63.33 0,-95.96c-6.77,-3.02 -13.55,-6.03 -20.53,-9.14c0,-4.52 0,-9.05 0,-13.71z" fill="#077AFF" id="svg_14"/>
  <path d="m492,476c2.31,0.33 4.62,0.66 7,1c2.12,4.32 2.33,8.33 2.31,13.06c0.02,0.71 0.03,1.42 0.05,2.15c0,3.17 -0.17,5.44 -1.69,8.25c-1.67,1.54 -1.67,1.54 -4.67,2.1c-3,-0.56 -3,-0.56 -4.66,-2.56c-1.77,-3.96 -1.78,-7.28 -1.72,-11.56c-0.01,-0.76 -0.02,-1.51 -0.03,-2.29c0.02,-4.31 0.29,-7.04 3.41,-10.15z" fill="#FAFCFF" id="svg_18" transform="matrix(1, 0, 0, 1, 0, 0)"/>
  <path d="m531,38c2.13,1.52 2.13,1.52 4,4c0.37,2.83 0.52,5.19 0.44,8c0,0.71 0.01,1.42 0.02,2.16c-0.04,3.18 -0.27,5.5 -1.8,8.31c-1.66,1.53 -1.66,1.53 -4.66,1.97c-3.33,-0.49 -4.01,-0.84 -6,-3.44c-0.39,-2.05 -0.39,-2.05 -0.4,-4.38c0,-0.84 -0.01,-1.68 -0.01,-2.54c0.01,-0.87 0.02,-1.74 0.03,-2.64c-0.01,-0.88 -0.02,-1.75 -0.03,-2.66c0,-0.83 0.01,-1.67 0.01,-2.53c0,-0.77 0.01,-1.54 0.01,-2.33c0.87,-4.31 4.74,-4.45 8.39,-3.92z" fill="#F2F8FF" id="svg_19" transform="matrix(1, 0, 0, 1, 0, 0)"/>
  <path d="m998.61,226c31.32,1.93 31.32,1.93 41.22,6.89c0.27,8.03 0.27,16.09 0,24.11c-20.4,0 -40.8,0 -61.82,0c5.15,-23.25 5.15,-23.25 20.61,-31z" fill="#F6FAFF" id="svg_22"/>
  <path d="m788.28,106.31c7.81,19.33 7.81,19.33 15.78,38.91c7.81,0 15.62,0 23.67,0c17.28,12.97 17.28,12.97 31.56,25.94c-53.25,14.66 -53.25,14.66 -71,0c0,-21.4 0,-42.8 0,-64.85z" fill="#3995FF" id="svg_24" transform="matrix(-0.911004, 0.412397, -0.412397, -0.911004, 1187.45, -118.405)"/>
  <path d="m1539.25,294.5c35.36,2.18 35.36,2.18 46.53,7.78c0.31,9.06 0.31,18.16 0,27.22c-23.03,0 -46.07,0 -69.8,0c5.82,-26.25 5.82,-26.25 23.27,-35z" fill="#F6FAFF" id="svg_27" transform="rotate(-17.6502, 1551, 312)"/>
  <path d="m2292.8,253.78c40.97,2.86 40.97,2.86 53.9,10.22c0.36,11.91 0.36,23.87 0,35.77c-26.68,0 -53.36,0 -80.86,0c6.74,-34.5 6.74,-34.5 26.95,-46z" fill="#F6FAFF" id="svg_28" transform="rotate(84.5462, 2306.41, 276.78)"/>
  <path d="m2147.45,243.42c32.58,4.42 32.58,4.42 42.87,15.8c0.29,18.41 0.29,36.9 0,55.31c-21.22,0 -42.44,0 -64.3,0c5.36,-53.34 5.36,-53.34 21.43,-71.11z" fill="#F6FAFF" id="svg_29" transform="rotate(86.6701, 2158.28, 278.978)"/>
 </g>
</svg>