<?xml version="1.0"?>
<svg width="2458" height="512" xmlns="http://www.w3.org/2000/svg" xmlns:svg="http://www.w3.org/2000/svg" version="1.1">

 <g class="layer">
  <title>Layer 1</title>
  <path d="m247.25,1.68c7.48,0.04 14.98,0.04 22.46,0.02c36.03,0.04 71.55,0.7 106.03,11.4c2.1,0.63 4.22,1.27 6.38,1.92c29.1,9.26 54.95,23.22 77.85,42.35c1.64,1.33 3.26,2.69 4.95,4.06c11.61,10.09 19.61,20.98 26.97,34c1,1.76 2.01,3.51 3.06,5.33c17.53,32.99 20.09,68.09 20.13,104.33c0,2.5 0,5.01 0.02,7.61c0,5.27 0,10.55 0,15.84c0.02,7.97 0.05,15.96 0.09,23.94c0.21,69.59 0.21,69.59 -13.18,100.12c-0.82,1.88 -1.62,3.74 -2.44,5.69c-29.35,66.08 -95.95,102.94 -162.74,132.56c-1.85,0.8 -3.67,1.63 -5.59,2.47c-16.69,7.17 -34.18,12.75 -51.42,18.67c0,-16.75 0,-33.49 0,-50.75c-1.5,0.7 -3.01,1.4 -4.56,2.11c-65.37,8.73 -136.97,3.4 -192.72,-32.04c-44.17,-30.64 -71.78,-81.88 -80.24,-132.05c-2.39,-18.38 -1.78,-37.09 -1.66,-55.57c0,-2.28 0.02,-4.59 0.02,-6.96c0.23,-69.17 8.55,-128.01 62.25,-179.78c26.34,-23.7 60.04,-41.25 96.06,-48.23c2.55,-0.55 5.08,-1.08 7.71,-1.63c26.93,-5.07 53.15,-5.62 80.56,-5.43z" fill="#0276FE" id="svg_2" transform="matrix(1, 0, 0, 1, 0, 0)"/>
  <path d="m212.49,107.66c29.17,17.74 51.07,55.02 71.14,82.69c9.5,13.08 19.15,26.04 29.28,38.6c1.16,1.42 2.29,2.83 3.47,4.31c3.72,3.63 5.91,4.19 10.75,5.26c-0.02,-2.25 -0.02,-2.25 -0.04,-4.54c-0.11,-14.19 -0.18,-28.37 -0.24,-42.58c-0.04,-7.28 -0.07,-14.57 -0.13,-21.87c-0.07,-7.04 -0.09,-14.09 -0.11,-21.13c-0.02,-2.7 -0.04,-5.38 -0.07,-8.05c-0.04,-3.76 -0.04,-7.55 -0.04,-11.31c-0.02,-3.2 -0.02,-3.2 -0.04,-6.48c0.66,-6.29 0.66,-6.29 6.16,-19.87c18.77,0 37.53,0 56.87,0c-0.07,27.23 -0.18,54.44 -0.33,81.64c-0.07,12.63 -0.13,25.27 -0.17,37.9c-0.02,12.21 -0.09,24.41 -0.18,36.62c-0.02,4.66 -0.04,9.3 -0.04,13.93c0,6.54 -0.06,13.06 -0.11,19.6c0.02,2.85 0.02,2.85 0.02,5.76c-0.22,15.87 -3.19,32.08 -13.52,44.21c-8.57,7.86 -18.16,12.03 -29.64,11.47c-13.98,-2.97 -22.32,-14.69 -29.86,-26.51c-1.01,-1.51 -2.02,-3.05 -3.06,-4.64c-2.09,-3.16 -4.18,-6.37 -6.26,-9.55c-4.75,-7.32 -9.58,-14.57 -14.42,-21.83c-0.9,-1.36 -1.8,-2.72 -2.73,-4.13c-7.12,-10.67 -14.58,-21.02 -22.18,-31.34c-4.7,-6.48 -9.14,-13.12 -13.54,-19.85c-4.22,-6.46 -8.49,-12.87 -12.79,-19.27c-0.75,-1.13 -1.5,-2.23 -2.27,-3.4c-1.47,-2.19 -2.95,-4.37 -4.46,-6.52c-1.49,-2.12 -2.92,-4.27 -4.29,-6.44c-4.35,-6.35 -7.69,-9.02 -14.75,-10.65c-2.31,-0.52 -4.64,-1.05 -7.03,-1.61c0,1.38 -0.02,2.76 -0.04,4.19c-0.09,13.1 -0.24,26.2 -0.39,39.3c-0.09,6.73 -0.17,13.47 -0.2,20.2c-0.07,7.76 -0.17,15.53 -0.28,23.31c0,2.37 -0.02,4.74 -0.04,7.2c-0.33,20.92 -1.5,43.2 -15.57,59.11c-13.61,9 -27.66,8.13 -43.22,8.13c-2.05,0.02 -4.09,0.06 -6.22,0.08c-13.83,0.02 -26.87,-1.46 -40.45,-4.33c0,-1.28 0,-2.56 0,-3.88c1.17,-0.56 2.35,-1.13 3.56,-1.71c15.3,-7.67 26.12,-14.57 33.13,-31.28c10.03,-34.95 8.33,-72.31 8.25,-108.43c-0.02,-10.07 -0.02,-20.16 0.06,-30.24c0,-3.98 -0.02,-7.94 -0.06,-11.92c0.07,-14.21 1.03,-23.66 8.25,-35.73c0.99,-1.71 1.96,-3.43 2.99,-5.2c15.76,-16.24 35.13,-18.59 54.81,-9.22z" fill="#F8FBFE" id="svg_3"/>
  <path d="m764,-1c3.92,-0.47 5.58,-0.3 8.84,2.01c3.68,3.23 6.31,7.08 9.04,11.12c1.05,1.53 2.11,3.06 3.17,4.59c0.51,0.74 1.02,1.48 1.54,2.24c3.88,5.62 7.95,11.12 12.07,16.56c5.68,7.5 11.21,15.08 16.59,22.79c0.89,1.28 0.89,1.28 1.8,2.58c2.09,3 4.18,6 6.26,9c1.08,1.54 2.17,3.08 3.25,4.61c0.56,0.79 1.12,1.59 1.69,2.41c2.01,2.41 4.25,4.21 6.75,6.09c-12.4,-0.2 -20.23,-2.06 -29.19,-10.81c-3.34,-3.52 -6.56,-7.13 -9.72,-10.81c-3.45,-3.92 -7.03,-7.71 -10.6,-11.51c-4.56,-4.86 -9.08,-9.75 -13.58,-14.66c-1.94,-2.11 -3.84,-4.15 -6.03,-6c-2.43,-2.85 -2.43,-4.51 -2.52,-8.22c-0.04,-1.15 -0.08,-2.3 -0.12,-3.49c-0.01,-1.19 -0.03,-2.39 -0.05,-3.62c-0.04,-1.21 -0.08,-2.42 -0.12,-3.66c-0.23,-8.9 -0.23,-8.9 0.93,-11.22z" fill="#03A2FE" id="svg_4" transform="matrix(1, 0, 0, 1, 0, 0)"/>
  <path d="m1421,76c4.95,0 9.9,0 15,0c0,6.27 0,12.54 0,19c1.65,-0.99 3.3,-1.98 5,-3c4.05,-0.77 8.18,-0.94 11.91,0.98c3.72,2.97 5.84,5.9 6.39,10.61c0.02,5.52 0,9.74 -3.3,14.41c-4.81,4.45 -8.46,5.21 -14.79,5.17c-2.67,-0.21 -4.76,-1.12 -7.21,-2.17c-2.07,0.25 -2.07,0.25 -4,1c-1.98,0.49 -1.98,0.49 -4,1c-0.33,-14.19 -0.66,-28.38 -1,-43c-1.32,-0.33 -2.64,-0.66 -4,-1c0,-0.99 0,-1.98 0,-3z" fill="#0D7EFF" id="svg_5" transform="matrix(1, 0, 0, 1, 0, 0)"/>
  <path d="m1559,237c3.58,2.67 5.66,5.22 6.51,9.66c0.26,6.25 -0.69,10.38 -4.51,15.34c-5.65,4.24 -12.11,4.91 -19,4c-4.32,-1.68 -7.2,-3.95 -10,-7.62c-1.46,-4.92 -2.01,-9.31 -1,-14.38c2.38,-4.13 5.39,-7.01 9.44,-9.5c6.67,-1.3 12.62,-0.91 18.56,2.5z" fill="#0E7EFF" id="svg_6" transform="matrix(1, 0, 0, 1, 0, 0)"/>
  <path d="m1484,361c6.27,0 12.54,0 19,0c0,0.99 0,1.98 0,3c-0.97,0.29 -1.94,0.58 -2.94,0.88c-3.17,0.76 -3.17,0.76 -4.06,3.12c-0.16,2.7 -0.26,5.37 -0.32,8.07c-0.02,0.8 -0.04,1.59 -0.06,2.41c-0.06,2.55 -0.12,5.1 -0.18,7.65c-0.05,1.72 -0.09,3.45 -0.13,5.17c-0.11,4.23 -0.21,8.47 -0.31,12.7c-2.84,0.16 -2.84,0.16 -6,0c-2.01,-1.99 -3.46,-3.72 -5.06,-6c-0.95,-1.27 -1.89,-2.55 -2.84,-3.82c-0.49,-0.68 -0.99,-1.35 -1.5,-2.05c-2.82,-3.76 -5.81,-7.37 -8.79,-11c-2.87,-3.53 -2.87,-3.53 -5.81,-7.13c0,8.58 0,17.16 0,26c1.98,0.33 3.96,0.66 6,1c0,0.99 0,1.98 0,3c-5.94,0 -11.88,0 -18,0c0,-0.99 0,-1.98 0,-3c2.97,-0.49 2.97,-0.49 6,-1c0.15,-4.48 0.26,-8.97 0.33,-13.45c0.03,-1.53 0.07,-3.05 0.12,-4.58c0.08,-2.19 0.11,-4.38 0.14,-6.58c0.03,-0.68 0.06,-1.36 0.09,-2.06c0.07,-2.2 0.07,-2.2 -0.68,-5.33c-2.93,-2.37 -2.93,-2.37 -6,-4c0,-0.66 0,-1.32 0,-2c13.67,-1.51 13.67,-1.51 18.68,1.73c2.35,2.64 4.32,5.37 6.32,8.27c1.46,1.87 2.95,3.72 4.43,5.56c2.99,3.73 5.92,7.47 8.57,11.44c0.12,-3.44 0.19,-6.87 0.25,-10.31c0.03,-0.98 0.07,-1.96 0.1,-2.96c0.01,-0.94 0.03,-1.88 0.04,-2.84c0.02,-0.87 0.04,-1.73 0.06,-2.62c-0.25,-2.42 -0.25,-2.42 -2.29,-4.01c-2.22,-1.39 -2.22,-1.39 -5.16,-2.26c0,-0.99 0,-1.98 0,-3z" fill="#0A7CFE" id="svg_7" transform="matrix(1, 0, 0, 1, 0, 0)"/>
  <path d="m1383,142c4.95,0 9.9,0 15,0c0.33,0.99 0.66,1.98 1,3c0.82,-0.73 0.82,-0.73 1.66,-1.47c2.82,-1.84 4.49,-1.96 7.84,-1.97c0.94,-0.02 1.88,-0.04 2.84,-0.06c2.66,0.5 2.66,0.5 4.96,1.82c2.76,4.34 2.38,8.9 2.45,13.93c0.03,1.03 0.06,2.06 0.09,3.13c0.07,2.54 0.12,5.08 0.16,7.62c1.32,0.66 2.64,1.32 4,2c0,0.66 0,1.32 0,2c-5.94,0 -11.88,0 -18,0c0,-0.66 0,-1.32 0,-2c0.66,-0.33 1.32,-0.66 2,-1c0,-6.93 0,-13.86 0,-21c-2.31,0 -4.62,0 -7,0c-1.58,1.58 -1.22,3.28 -1.32,5.47c-0.04,0.9 -0.08,1.8 -0.12,2.73c-0.06,1.42 -0.06,1.42 -0.12,2.86c-0.05,0.95 -0.09,1.9 -0.13,2.88c-0.11,2.35 -0.21,4.71 -0.31,7.06c0.99,0.33 1.98,0.66 3,1c0,0.66 0,1.32 0,2c-5.94,0 -11.88,0 -18,0c0,-0.66 0,-1.32 0,-2c1.32,-0.66 2.64,-1.32 4,-2c0,-6.93 0,-13.86 0,-21c-1.32,-0.66 -2.64,-1.32 -4,-2c0,-0.99 0,-1.98 0,-3z" fill="#097BFF" id="svg_8" transform="matrix(1, 0, 0, 1, 0, 0)"/>
  <path d="m1081.5,305.38c2.5,1.63 2.5,1.63 4.5,3.63c0.32,2.24 0.32,2.24 0.41,5c0.04,0.99 0.08,1.98 0.12,2.99c0.03,1.03 0.06,2.07 0.1,3.13c0.03,1.04 0.07,2.08 0.11,3.15c0.1,2.58 0.18,5.15 0.26,7.73c1.32,0.32 2.64,0.66 4,1c0,0.98 0,1.98 0,3c-3.43,1.71 -7.24,1.4 -11,1c-2.56,-1.5 -2.56,-1.5 -4,-3c-0.66,0.49 -1.32,0.98 -2,1.5c-3.81,1.9 -6.82,2.39 -11,1.5c-3.44,-2.44 -4.76,-3.86 -5.63,-8c0.64,-3.05 1.39,-4.75 3.73,-6.84c4.45,-2.73 10.63,-5.16 15.9,-5.16c-0.66,-2.64 -1.32,-5.29 -2,-8c-2.97,-0.5 -2.97,-0.5 -6,-1c0,2.63 0,5.28 0,8c-2.76,1.38 -4.95,1.19 -8,1c-0.66,-0.67 -1.32,-1.33 -2,-2c0.06,-2.38 0.06,-2.38 1,-5c6.13,-5.82 13.71,-6.69 21.5,-3.63z" fill="#0579FF" id="svg_9" transform="matrix(1, 0, 0, 1, 0, 0)"/>
  <path d="m0,0c4.95,0 9.9,0 15,0c0.33,8.58 0.66,17.16 1,26c2.64,-0.66 5.28,-1.32 8,-2c0.33,-6.6 0.66,-13.2 1,-20c-2.48,-0.5 -2.48,-0.5 -5,-1c0,-0.99 0,-1.98 0,-3c4.95,0 9.9,0 15,0c0.49,12.38 0.49,12.38 1,25c1.32,0.66 2.64,1.32 4,2c0,0.99 0,1.98 0,3c-4.95,0 -9.9,0 -15,0c0,-0.99 0,-1.98 0,-3c-0.8,0.66 -1.61,1.32 -2.44,2c-3.97,2.64 -7.92,2.9 -12.56,2c-2.5,-1.88 -3.62,-3.24 -5,-6c-0.15,-1.52 -0.25,-3.04 -0.32,-4.57c-0.06,-1.34 -0.06,-1.34 -0.12,-2.72c-0.04,-0.93 -0.08,-1.87 -0.12,-2.83c-0.05,-0.95 -0.09,-1.89 -0.13,-2.87c-0.11,-2.34 -0.21,-4.67 -0.31,-7.01c-1.32,-0.66 -2.64,-1.32 -4,-2c0,-0.99 0,-1.98 0,-3z" fill="#0C7DFF" id="svg_10" transform="translate(893, 215)"/>
  <path d="m889,319c3.57,1.81 6.11,3.42 8,7c0,2.31 0,4.62 0,7c-6.6,0 -13.2,0 -20,0c1.05,6.8 1.05,6.8 5,11c4.1,0.77 7.86,0.7 11.44,-1.5c0.51,-0.5 1.03,-0.99 1.56,-1.5c0.66,0 1.32,0 2,0c-0.38,2.42 -0.72,3.72 -2.46,5.48c-5.74,3.8 -10.74,4.6 -17.54,3.52c-4.13,-1.3 -7.03,-3.59 -9.44,-7.19c-2.08,-4.21 -2.36,-8.21 -1.56,-12.81c1.35,-3.85 3.55,-6.55 6.44,-9.44c5.37,-2.35 10.78,-2.36 16.56,-1.56z" fill="#0B7DFF" id="svg_11"/>
  <path d="m1076,183c7.92,0 15.84,0 24,0c0,0.99 0,1.98 0,3c-1.98,0.66 -3.96,1.32 -6,2c0,11.22 0,22.44 0,34c1.65,0.33 3.3,0.66 5,1c0,0.99 0,1.98 0,3c-7.59,0 -15.18,0 -23,0c0,-0.66 0,-1.32 0,-2c1.65,-0.66 3.3,-1.32 5,-2c0,-11.22 0,-22.44 0,-34c-2.48,-0.99 -2.48,-0.99 -5,-2c0,-0.99 0,-1.98 0,-3z" fill="#0C7DFF" id="svg_12" transform="matrix(1, 0, 0, 1, 0, 0)"/>
  <path d="m1280,188c6.27,0 12.54,0 19,0c0,0.99 0,1.98 0,3c-0.99,0 -1.98,0 -3,0c1.32,2.31 2.64,4.62 4,7c3.43,-3.18 3.43,-3.18 6,-7c-0.99,0 -1.98,0 -3,0c0,-0.99 0,-1.98 0,-3c3.96,0 7.92,0 12,0c0,0.99 0,1.98 0,3c-0.87,0.37 -1.73,0.74 -2.62,1.13c-3.95,2.18 -6.32,4.59 -9.38,7.87c1.4,4.04 3.31,6.94 6,10.25c0.7,0.87 1.4,1.74 2.13,2.64c1.7,2.18 1.7,2.18 3.87,3.11c0,0.66 0,1.32 0,2c-5.94,0 -11.88,0 -18,0c0,-0.66 0,-1.32 0,-2c0.99,0 1.98,0 3,0c-1.65,-2.64 -3.3,-5.28 -5,-8c-1.71,1.62 -3.37,3.29 -5,5c0,0.66 0,1.32 0,2c0.66,0.33 1.32,0.66 2,1c0,0.66 0,1.32 0,2c-3.96,0 -7.92,0 -12,0c0,-0.99 0,-1.98 0,-3c1.66,-1.01 3.33,-2.01 5,-3c2.43,-2.24 4.72,-4.6 7,-7c-1.64,-3.47 -3.67,-6.36 -5.98,-9.41c-1.02,-1.59 -1.02,-1.59 -1.02,-3.59c-1.65,-0.33 -3.3,-0.66 -5,-1c0,-0.99 0,-1.98 0,-3z" fill="#0C7DFF" id="svg_13" transform="matrix(1, 0, 0, 1, 0, 0)"/>
  <path d="m937,129c4.95,0 9.9,0 15,0c0.33,0.99 0.66,1.98 1,3c0.5,-0.5 0.99,-0.99 1.5,-1.5c3.69,-2.21 6.23,-1.84 10.5,-1.5c2,2 2,2 2.25,5.5c-0.25,3.5 -0.25,3.5 -2.25,5.5c-3,0.25 -3,0.25 -6,0c-0.66,-0.66 -1.32,-1.32 -2,-2c0,-1.32 0,-2.64 0,-4c-1.98,0.99 -1.98,0.99 -4,2c0,6.27 0,12.54 0,19c1.32,0.66 2.64,1.32 4,2c0,0.66 0,1.32 0,2c-6.6,0 -13.2,0 -20,0c0,-0.66 0,-1.32 0,-2c1.32,-0.66 2.64,-1.32 4,-2c0,-6.93 0,-13.86 0,-21c-1.32,-0.66 -2.64,-1.32 -4,-2c0,-0.99 0,-1.98 0,-3z" fill="#077AFF" id="svg_14" transform="matrix(1, 0, 0, 1, 0, 0)"/>
  <path d="m1341,291c3.9,1.98 6.39,4.96 8,9c0.72,6.16 0.68,11.8 -3,17c-3.73,3.83 -6.73,4.59 -12,5c1.87,-5.87 1.87,-5.87 3,-7c0.15,-2.64 0.23,-5.23 0.25,-7.87c0.02,-0.74 0.04,-1.47 0.06,-2.23c0.06,-4.17 0.06,-4.17 -1.63,-7.9c-2.53,-1.51 -4.8,-1.19 -7.68,-1c0.37,-1.94 0.37,-1.94 1,-4c3.73,-1.86 7.94,-1.56 12,-1z" fill="#087BFF" id="svg_15" transform="matrix(1, 0, 0, 1, 0, 0)"/>
  <path d="m1396,309c5.32,-0.51 7.86,0.67 12,4c2.7,2.35 3.84,3.96 4.38,7.52c0.26,6.36 -0.48,10.42 -4.38,15.48c-4.16,3.59 -7.75,3.27 -13,3c0.82,-0.82 1.63,-1.65 2.48,-2.5c3.01,-3.62 3.14,-6.98 2.9,-11.56c-0.02,-0.7 -0.03,-1.39 -0.05,-2.11c-0.1,-3.7 -0.47,-7.22 -1.33,-10.83c-0.99,-0.33 -1.98,-0.66 -3,-1c0,-0.66 0,-1.32 0,-2z" fill="#087BFF" id="svg_16" transform="matrix(1, 0, 0, 1, 0, 0)"/>
  <path d="m954,53c0.03,1.58 0.05,3.17 0.06,4.75c0.01,0.88 0.03,1.76 0.04,2.67c-0.09,2.4 -0.31,4.32 -1.1,6.58c-3.45,2.93 -6.66,3.6 -11.06,3.41c-3.5,-0.74 -4.96,-2.56 -6.94,-5.41c-0.63,-3 -0.63,-3 0,-6c4.5,-6.24 11.94,-9.53 19,-6z" fill="#0D7EFF" id="svg_17" transform="matrix(1, 0, 0, 1, 0, 0)"/>
  <path d="m492,476c2.31,0.33 4.62,0.66 7,1c2.12,4.32 2.33,8.33 2.31,13.06c0.02,0.71 0.03,1.42 0.05,2.15c0,3.17 -0.17,5.44 -1.69,8.25c-1.67,1.54 -1.67,1.54 -4.67,2.1c-3,-0.56 -3,-0.56 -4.66,-2.56c-1.77,-3.96 -1.78,-7.28 -1.72,-11.56c-0.01,-0.76 -0.02,-1.51 -0.03,-2.29c0.02,-4.31 0.29,-7.04 3.41,-10.15z" fill="#FAFCFF" id="svg_18" transform="matrix(1, 0, 0, 1, 0, 0)"/>
  <path d="m0,0c2.13,1.52 2.13,1.52 4,4c0.37,2.83 0.52,5.19 0.44,8c0,0.71 0.01,1.42 0.02,2.16c-0.04,3.18 -0.27,5.5 -1.8,8.31c-1.66,1.53 -1.66,1.53 -4.66,1.97c-3.33,-0.49 -4.01,-0.84 -6,-3.44c-0.39,-2.05 -0.39,-2.05 -0.4,-4.38c0,-0.84 -0.01,-1.68 -0.01,-2.54c0.01,-0.87 0.02,-1.74 0.03,-2.64c-0.01,-0.88 -0.02,-1.75 -0.03,-2.66c0,-0.83 0.01,-1.67 0.01,-2.53c0,-0.77 0.01,-1.54 0.01,-2.33c0.87,-4.31 4.74,-4.45 8.39,-3.92z" fill="#F2F8FF" id="svg_19" transform="translate(678,178)"/>
  <path d="m1323.1,393.01c3.13,0.04 6.25,0.09 9.48,0.13c2.4,0.04 4.76,0.09 7.23,0.13c0,1.41 0,2.82 0,4.28c-15.46,2.14 -15.46,2.14 -31.26,4.28c0,12.71 0,25.42 0,38.52c-9.59,5.91 -17.16,5.09 -27.79,4.28c-2.29,-2.82 -4.59,-5.65 -6.95,-8.56c0.21,-10.14 0.21,-10.14 3.47,-21.4c14.76,-17.21 25.81,-21.96 45.82,-21.66z" fill="#1E87FF" id="svg_20" transform="matrix(1, 0, 0, 1, 0, 0)"/>
  <path d="m844.77,293c1.61,30.07 2.89,60.32 4.18,90.57c0.64,16.7 1.29,33.41 2.25,50.85c-6.43,44.17 -6.43,44.17 -70.69,81.29c-80.33,4.64 -80.33,4.64 -160.67,0c-64.27,-37.12 -64.27,-37.12 -80.33,-79.99c16.07,-49.92 16.07,-49.92 106.36,-102.07c102.51,-40.64 102.51,-40.64 198.91,-40.64z" fill="#E4F0FF" id="svg_21" transform="matrix(1, 0, 0, 1, 0, 0)"/>
  <path d="m758.24,139c47.48,4.73 47.48,4.73 62.48,16.89c0.42,19.68 0.42,39.44 0,59.11c-30.93,0 -61.85,0 -93.72,0c7.81,-57 7.81,-57 31.24,-76z" fill="#F6FAFF" id="svg_22" transform="matrix(1, 0, 0, 1, 0, 0)"/>
  <path d="m1184,70c29.04,0 58.08,0 88,0c0,8.36 0,16.72 0,25.33c-6.53,3.63 -12.98,7.35 -19.73,11.06c-20.9,12.33 -40.92,25.42 -60.94,39.6c0,-25.33 0,-25.33 14.67,-50.67c-7.26,0 -14.52,0 -22,0c0,-8.36 0,-16.72 0,-25.33z" fill="#2088FF" id="svg_23" transform="matrix(1, 0, 0, 1, 0, 0)"/>
  <path d="m1043,2c13.09,33.34 13.09,33.34 26.44,67.13c13.09,0 26.18,0 39.67,0c28.96,22.38 28.96,22.38 52.89,44.75c-89.25,25.29 -89.25,25.29 -119,0c0,-36.92 0,-73.84 0,-111.88z" fill="#3995FF" id="svg_24" transform="matrix(1, 0, 0, 1, 0, 0)"/>
  <path d="m1206,362c-9.48,-22.21 -9.48,-22.21 -19.14,-44.71c-12.63,9.84 -25.27,19.67 -38.29,29.81c3.16,-9.84 6.32,-19.67 9.57,-29.81c-6.32,-9.84 -12.63,-19.67 -19.14,-29.81c45.46,-16.84 45.46,-16.84 67,0c0,24.59 0,49.18 0,74.52z" fill="#268BFF" id="svg_25" transform="matrix(1, 0, 0, 1, 0, 0)"/>
  <path d="m708,116c-33.68,22.88 -49.12,35.03 -73,70.63c10.32,21.05 10.32,21.05 20.86,42.38c25.86,-55.93 25.86,-55.93 52.14,-113z" fill="#BDDCFD" id="svg_26" transform="matrix(1, 0, 0, 1, 0, 0)"/>
 </g>
</svg>